<svg width="400" height="400" viewBox="0 0 400 400" fill="none" xmlns="http://www.w3.org/2000/svg">
  <!-- 背景 -->
  <rect width="400" height="400" fill="#F8FAFC" stroke="#E2E8F0" stroke-width="2"/>
  
  <!-- 二维码模拟 -->
  <rect x="50" y="50" width="300" height="300" fill="white" stroke="#CBD5E1" stroke-width="1"/>
  
  <!-- 二维码图案 -->
  <g fill="#1E293B">
    <!-- 左上角定位点 -->
    <rect x="70" y="70" width="60" height="60" fill="#1E293B"/>
    <rect x="80" y="80" width="40" height="40" fill="white"/>
    <rect x="90" y="90" width="20" height="20" fill="#1E293B"/>
    
    <!-- 右上角定位点 -->
    <rect x="270" y="70" width="60" height="60" fill="#1E293B"/>
    <rect x="280" y="80" width="40" height="40" fill="white"/>
    <rect x="290" y="90" width="20" height="20" fill="#1E293B"/>
    
    <!-- 左下角定位点 -->
    <rect x="70" y="270" width="60" height="60" fill="#1E293B"/>
    <rect x="80" y="280" width="40" height="40" fill="white"/>
    <rect x="90" y="290" width="20" height="20" fill="#1E293B"/>
    
    <!-- 模拟数据点 -->
    <rect x="150" y="70" width="10" height="10"/>
    <rect x="170" y="70" width="10" height="10"/>
    <rect x="190" y="70" width="10" height="10"/>
    <rect x="210" y="70" width="10" height="10"/>
    <rect x="230" y="70" width="10" height="10"/>
    
    <rect x="70" y="150" width="10" height="10"/>
    <rect x="90" y="150" width="10" height="10"/>
    <rect x="110" y="150" width="10" height="10"/>
    <rect x="130" y="150" width="10" height="10"/>
    <rect x="150" y="150" width="10" height="10"/>
    <rect x="170" y="150" width="10" height="10"/>
    <rect x="190" y="150" width="10" height="10"/>
    <rect x="210" y="150" width="10" height="10"/>
    <rect x="230" y="150" width="10" height="10"/>
    <rect x="250" y="150" width="10" height="10"/>
    <rect x="270" y="150" width="10" height="10"/>
    <rect x="290" y="150" width="10" height="10"/>
    <rect x="310" y="150" width="10" height="10"/>
    <rect x="330" y="150" width="10" height="10"/>
    
    <!-- 更多数据点 -->
    <rect x="150" y="170" width="10" height="10"/>
    <rect x="190" y="170" width="10" height="10"/>
    <rect x="230" y="170" width="10" height="10"/>
    <rect x="270" y="170" width="10" height="10"/>
    <rect x="310" y="170" width="10" height="10"/>
    
    <rect x="70" y="190" width="10" height="10"/>
    <rect x="110" y="190" width="10" height="10"/>
    <rect x="150" y="190" width="10" height="10"/>
    <rect x="190" y="190" width="10" height="10"/>
    <rect x="230" y="190" width="10" height="10"/>
    <rect x="270" y="190" width="10" height="10"/>
    <rect x="310" y="190" width="10" height="10"/>
    
    <rect x="90" y="210" width="10" height="10"/>
    <rect x="130" y="210" width="10" height="10"/>
    <rect x="170" y="210" width="10" height="10"/>
    <rect x="210" y="210" width="10" height="10"/>
    <rect x="250" y="210" width="10" height="10"/>
    <rect x="290" y="210" width="10" height="10"/>
    <rect x="330" y="210" width="10" height="10"/>
    
    <rect x="150" y="230" width="10" height="10"/>
    <rect x="190" y="230" width="10" height="10"/>
    <rect x="230" y="230" width="10" height="10"/>
    <rect x="270" y="230" width="10" height="10"/>
    <rect x="310" y="230" width="10" height="10"/>
    
    <rect x="150" y="250" width="10" height="10"/>
    <rect x="170" y="250" width="10" height="10"/>
    <rect x="190" y="250" width="10" height="10"/>
    <rect x="210" y="250" width="10" height="10"/>
    <rect x="230" y="250" width="10" height="10"/>
    <rect x="250" y="250" width="10" height="10"/>
    <rect x="270" y="250" width="10" height="10"/>
    <rect x="290" y="250" width="10" height="10"/>
    <rect x="310" y="250" width="10" height="10"/>
    <rect x="330" y="250" width="10" height="10"/>
    
    <rect x="150" y="270" width="10" height="10"/>
    <rect x="170" y="270" width="10" height="10"/>
    <rect x="190" y="270" width="10" height="10"/>
    <rect x="210" y="270" width="10" height="10"/>
    <rect x="230" y="270" width="10" height="10"/>
    <rect x="250" y="270" width="10" height="10"/>
    <rect x="270" y="270" width="10" height="10"/>
    <rect x="290" y="270" width="10" height="10"/>
    <rect x="310" y="270" width="10" height="10"/>
    <rect x="330" y="270" width="10" height="10"/>
    
    <rect x="150" y="290" width="10" height="10"/>
    <rect x="170" y="290" width="10" height="10"/>
    <rect x="190" y="290" width="10" height="10"/>
    <rect x="210" y="290" width="10" height="10"/>
    <rect x="230" y="290" width="10" height="10"/>
    <rect x="250" y="290" width="10" height="10"/>
    <rect x="270" y="290" width="10" height="10"/>
    <rect x="290" y="290" width="10" height="10"/>
    <rect x="310" y="290" width="10" height="10"/>
    <rect x="330" y="290" width="10" height="10"/>
    
    <rect x="150" y="310" width="10" height="10"/>
    <rect x="170" y="310" width="10" height="10"/>
    <rect x="190" y="310" width="10" height="10"/>
    <rect x="210" y="310" width="10" height="10"/>
    <rect x="230" y="310" width="10" height="10"/>
    <rect x="250" y="310" width="10" height="10"/>
    <rect x="270" y="310" width="10" height="10"/>
    <rect x="290" y="310" width="10" height="10"/>
    <rect x="310" y="310" width="10" height="10"/>
    <rect x="330" y="310" width="10" height="10"/>
    
    <rect x="150" y="330" width="10" height="10"/>
    <rect x="170" y="330" width="10" height="10"/>
    <rect x="190" y="330" width="10" height="10"/>
    <rect x="210" y="330" width="10" height="10"/>
    <rect x="230" y="330" width="10" height="10"/>
    <rect x="250" y="330" width="10" height="10"/>
    <rect x="270" y="330" width="10" height="10"/>
    <rect x="290" y="330" width="10" height="10"/>
    <rect x="310" y="330" width="10" height="10"/>
    <rect x="330" y="330" width="10" height="10"/>
  </g>
  
  <!-- 支付宝标识 -->
  <circle cx="200" cy="380" r="8" fill="#1677FF"/>
  <text x="200" y="385" text-anchor="middle" fill="white" font-family="Arial" font-size="10" font-weight="bold">支</text>
  
  <!-- 提示文字 -->
  <text x="200" y="30" text-anchor="middle" fill="#64748B" font-family="Arial" font-size="14">示例收款码</text>
  <text x="200" y="45" text-anchor="middle" fill="#94A3B8" font-family="Arial" font-size="12">请替换为真实收款码</text>
</svg>
